<svg width="264" height="264" viewBox="0 0 264 264" fill="none" xmlns="http://www.w3.org/2000/svg">
<path d="M52.0758 198.255C51.0968 196.562 52.3179 194.445 54.2728 194.445H92.5095C93.4155 194.445 94.2528 194.928 94.7065 195.713L113.979 229.026C114.958 230.719 113.737 232.836 111.782 232.836H84.5251C76.8239 232.836 69.7066 228.731 65.8502 222.065L52.0758 198.255Z" fill="#AA8EFF"/>
<path d="M23.2037 148.125C22.2248 146.433 23.4458 144.315 25.4007 144.315H52.6577C60.3589 144.315 67.4762 148.42 71.3326 155.087L85.107 178.897C86.0859 180.589 84.8648 182.706 82.9099 182.706H55.653C47.9518 182.706 40.8345 178.601 36.9781 171.935L23.2037 148.125Z" fill="#6A42E3"/>
<path d="M109.82 198.255C108.841 196.562 110.062 194.445 112.017 194.445H139.274C146.975 194.445 154.092 198.55 157.949 205.216L171.723 229.026C172.702 230.719 171.481 232.836 169.526 232.836H131.289C130.383 232.836 129.546 232.353 129.092 231.569L109.82 198.255Z" fill="#6A42E3"/>
<path d="M162.973 86.8328C164.551 84.1149 167.447 82.4329 170.59 82.4096L203.924 82.1627C205.885 82.1482 207.121 84.2675 206.143 85.9669L157.148 171.1C153.297 177.79 146.167 181.913 138.448 181.913H112.183C110.227 181.913 109.006 179.793 109.988 178.101L162.973 86.8328Z" fill="#AA8EFF"/>
<path d="M76.1981 36.703C77.776 33.985 80.6726 32.303 83.8152 32.2797L117.15 32.0328C119.11 32.0183 120.346 34.1376 119.368 35.837L70.3727 120.97C66.5226 127.66 59.3921 131.783 51.6735 131.783H25.4085C23.4519 131.783 22.231 129.663 23.2134 127.971L76.1981 36.703Z" fill="#AA8EFF"/>
<path d="M131.594 42.4418C132.573 40.7572 135.007 40.7586 135.984 42.4442L154.944 75.143C155.401 75.9313 155.401 76.9042 154.942 77.692L100.184 171.865C99.1938 173.567 96.7268 173.543 95.7706 171.822L82.4781 147.896C78.7854 141.249 78.8642 133.149 82.6857 126.575L131.594 42.4418Z" fill="#6A42E3"/>
<path d="M218.528 92.889C219.507 91.2045 221.94 91.2059 222.918 92.8915L240.62 123.421C241.855 125.551 241.853 128.179 240.615 130.307L187.117 222.312C186.127 224.015 183.66 223.991 182.704 222.269L169.412 198.343C165.719 191.696 165.798 183.596 169.619 177.022L218.528 92.889Z" fill="#6A42E3"/>
</svg>
